<svg width="323" height="338" viewBox="0 0 323 338" fill="none" xmlns="http://www.w3.org/2000/svg">
<g clip-path="url(#clip0_1_2)">
<path d="M116.388 266L56.922 186.818L116.07 112.406H164.088L94.764 196.358L96.354 176.006L167.268 266H116.388ZM18.444 266V36.086H60.102V266H18.444Z" fill="white"/>
<path d="M229.68 334.052C213.356 334.052 198.94 331.084 186.432 325.148C173.924 319.424 163.96 311.262 156.54 300.662L182.934 274.268C188.87 281.264 195.442 286.564 202.65 290.168C210.07 293.984 218.974 295.892 229.362 295.892C242.294 295.892 252.47 292.606 259.89 286.034C267.522 279.462 271.338 270.346 271.338 258.686V220.208L278.334 186.5L271.656 152.792V112.406H312.996V258.05C312.996 273.314 309.392 286.564 302.184 297.8C295.188 309.248 285.436 318.152 272.928 324.512C260.42 330.872 246.004 334.052 229.68 334.052ZM227.772 261.866C213.992 261.866 201.59 258.58 190.566 252.008C179.542 245.224 170.85 236.002 164.49 224.342C158.342 212.682 155.268 199.644 155.268 185.228C155.268 170.812 158.342 157.88 164.49 146.432C170.85 134.984 179.542 125.974 190.566 119.402C201.59 112.618 213.992 109.226 227.772 109.226C239.22 109.226 249.29 111.452 257.982 115.904C266.886 120.356 273.882 126.504 278.97 134.348C284.058 141.98 286.814 150.99 287.238 161.378V209.714C286.814 219.89 283.952 229.006 278.652 237.062C273.564 244.906 266.568 251.054 257.664 255.506C248.972 259.746 239.008 261.866 227.772 261.866ZM236.04 224.024C243.672 224.024 250.244 222.434 255.756 219.254C261.48 215.862 265.932 211.304 269.112 205.58C272.292 199.644 273.882 192.966 273.882 185.546C273.882 177.914 272.292 171.236 269.112 165.512C265.932 159.788 261.48 155.336 255.756 152.156C250.244 148.764 243.672 147.068 236.04 147.068C228.408 147.068 221.73 148.764 216.006 152.156C210.282 155.336 205.83 159.894 202.65 165.83C199.47 171.554 197.88 178.126 197.88 185.546C197.88 192.754 199.47 199.326 202.65 205.262C205.83 210.986 210.282 215.544 216.006 218.936C221.73 222.328 228.408 224.024 236.04 224.024Z" fill="white"/>
</g>
<defs>
<clipPath id="clip0_1_2">
<rect width="323" height="338" fill="white"/>
</clipPath>
</defs>
</svg>
